<?xml version="1.0" encoding="utf-8"?>
<!-- Generator: Adobe Adobe Illustrator 24.2.0, SVG Export Plug-In . SVG Version: 6.00 Build 0)  -->
<svg version="1.1" xmlns="http://www.w3.org/2000/svg" xmlns:xlink="http://www.w3.org/1999/xlink" x="0px" y="0px" width="1500px"
	 height="275px" viewBox="0 0 1500 275" style="enable-background:new 0 0 1500 275;" xml:space="preserve">
<style type="text/css">
	.st0{display:none;}
	.st1{display:inline;}
	.st2{fill:#DECEBF;}
	.st3{fill:#C0AF9B;}
	.st4{fill:#BFAE9A;}
	.st5{fill:#CAB9A4;}
	.st6{fill:#B9AB96;}
	.st7{fill:#E3D3C6;}
	.st8{fill:#A09380;}
	.st9{fill:#A59682;}
	.st10{fill:#B4A390;}
	.st11{fill:#BCAB97;}
	.st12{fill:#B8A794;}
	.st13{fill:#C8B6A1;}
	.st14{fill:#BDAC99;}
	.st15{fill:#A49784;}
	.st16{fill:#150F05;}
	.st17{fill:#958A78;}
	.st18{fill:#A99C88;}
	.st19{fill:#9D907D;}
	.st20{fill:#C7B7A3;}
	.st21{fill:#D7C7B7;}
	.st22{fill:#C5B4A1;}
	.st23{fill:#AE9E8B;}
	.st24{fill:#5E5646;}
	.st25{fill:#988D7B;}
	.st26{fill:#908573;}
	.st27{fill:#474133;}
	.st28{fill:#534C3D;}
	.st29{fill:#897F6D;}
	.st30{fill:#665E4F;}
	.st31{fill:#6E6454;}
	.st32{fill:#766E5C;}
	.st33{fill:#585343;}
	.st34{fill:#413A2C;}
	.st35{fill:#7A705F;}
	.st36{fill:#847B68;}
	.st37{fill:#7F7664;}
	.st38{fill:#746A58;}
	.st39{fill:#353024;}
	.st40{fill:#BEB09C;}
	.st41{fill:#B6A894;}
	.st42{fill:#C3B39F;}
	.st43{fill:#282118;}
	.st44{fill:#B4A691;}
	.st45{fill:#B2A490;}
	.st46{fill:#A69985;}
	.st47{fill:#AFA38E;}
	.st48{fill:#CCBCA7;}
	.st49{fill:#928876;}
	.st50{fill:#B1A48F;}
	.st51{fill:#AEA18C;}
	.st52{fill:#A19681;}
	.st53{fill:#9D927F;}
	.st54{fill:#A59B85;}
	.st55{fill:#A49A84;}
	.st56{fill:#9D917F;}
	.st57{fill:#ACA18B;}
	.st58{opacity:0.749;fill:none;stroke:#FFFFFF;stroke-width:24;stroke-linecap:round;stroke-miterlimit:10;}
	.st59{fill:none;stroke:#29ABE2;stroke-width:24;stroke-linecap:round;stroke-miterlimit:10;}
	.st60{display:inline;fill:none;stroke:#29ABE2;stroke-width:30;stroke-linecap:round;stroke-miterlimit:10;}
	.st61{fill:#29ABE2;stroke:#29ABE2;stroke-width:12;stroke-linecap:round;stroke-linejoin:round;stroke-miterlimit:10;}
	
		.st62{display:inline;opacity:0.7098;fill:#29ABE2;stroke:#29ABE2;stroke-width:12;stroke-linecap:round;stroke-linejoin:round;stroke-miterlimit:10;}
	.st63{display:inline;fill:none;stroke:#29ABE2;stroke-width:40;stroke-miterlimit:10;}
	.st64{fill:none;stroke:#FFFFFF;stroke-width:24;stroke-linecap:round;stroke-miterlimit:10;}
	.st65{fill:none;stroke:#FFFFFF;stroke-width:24;stroke-miterlimit:10;}
	.st66{fill:none;stroke:#FFFFFF;stroke-width:40;stroke-miterlimit:10;}
	.st67{fill:#FFFFFF;stroke:#FFFFFF;stroke-width:12;stroke-linecap:round;stroke-linejoin:round;stroke-miterlimit:10;}
	.st68{fill:#29ABE2;}
	.st69{display:inline;fill:none;stroke:#29ABE2;stroke-width:30;stroke-miterlimit:10;}
	.st70{fill:#1673C5;}
	.st71{fill:none;}
	.st72{font-family:'Avenir-Book';}
	.st73{font-size:200px;}
	.st74{letter-spacing:37;}
	.st75{fill:#1B207A;}
	.st76{fill:#FFFFFF;}
	.st77{fill:#3CD6B2;}
	.st78{fill:#132170;}
	.st79{fill:#404040;}
	.st80{fill:url(#SVGID_1_);}
	.st81{fill:url(#SVGID_2_);}
	.st82{fill:url(#SVGID_3_);stroke:#1B207A;stroke-miterlimit:10;}
	.st83{fill:url(#SVGID_4_);stroke:#C7C7C7;stroke-miterlimit:10;}
	.st84{fill:url(#SVGID_5_);}
	.st85{fill:url(#SVGID_6_);stroke:#C7C7C7;stroke-miterlimit:10;}
	.st86{fill:url(#SVGID_7_);}
	.st87{fill:url(#SVGID_8_);}
	.st88{fill:url(#SVGID_9_);}
	.st89{fill:#193A94;}
</style>
<g id="Layer_1" class="st0">
</g>
<g id="Layer_2" class="st0">
</g>
<g id="Layer_4">
</g>
<g id="Layer_2_copy">
	<g>
		<g>
			<path class="st70" d="M151.83,163.17c-5.45,0-10.75-1.73-15.21-5.04c-5.51-4.08-9.1-10.06-10.12-16.84l0,0
				c-1.01-6.78,0.67-13.55,4.75-19.06c4.08-5.51,10.06-9.1,16.84-10.12c6.78-1.01,13.55,0.67,19.06,4.75
				c5.51,4.08,9.1,10.06,10.12,16.84c1.01,6.78-0.67,13.55-4.75,19.06c-4.08,5.51-10.06,9.1-16.84,10.12
				C154.39,163.08,153.11,163.17,151.83,163.17z M137.51,139.65c0.57,3.84,2.61,7.23,5.73,9.53c3.12,2.31,6.95,3.26,10.79,2.69
				c3.84-0.57,7.23-2.61,9.53-5.73c2.31-3.12,3.26-6.95,2.69-10.79c-0.57-3.84-2.61-7.23-5.73-9.53c-3.12-2.31-6.95-3.26-10.79-2.69
				c-3.84,0.57-7.23,2.61-9.53,5.73C137.89,131.98,136.94,135.81,137.51,139.65L137.51,139.65z"/>
			<g>
				<path class="st70" d="M141.32,45.07c1.17,1.46,2.42,2.89,3.73,4.28c1.45-1.37,2.83-2.79,4.13-4.26
					c-8.94-7.74-15.84-17.06-20.1-27.1c0.12,0.84,0.26,1.68,0.42,2.51C131.2,29.15,135.18,37.41,141.32,45.07z"/>
				<path class="st70" d="M145.05,51.03c-0.02,0-0.03,0-0.05,0c-0.44-0.01-0.86-0.2-1.17-0.52c-1.35-1.44-2.64-2.91-3.82-4.38l0,0
					c-6.31-7.88-10.4-16.38-12.15-25.28c-0.15-0.78-0.29-1.61-0.43-2.6c-0.12-0.83,0.4-1.62,1.2-1.85c0.81-0.22,1.66,0.18,1.99,0.96
					c4.17,9.8,10.96,18.96,19.66,26.49c0.34,0.29,0.54,0.71,0.57,1.15c0.03,0.45-0.12,0.89-0.42,1.22
					c-1.33,1.49-2.76,2.96-4.23,4.36C145.89,50.86,145.48,51.03,145.05,51.03z M142.63,44.03c0.78,0.98,1.62,1.96,2.49,2.94
					c0.57-0.57,1.14-1.15,1.69-1.74c-4.44-4.01-8.38-8.43-11.72-13.15C137.03,36.19,139.55,40.19,142.63,44.03L142.63,44.03z"/>
			</g>
			<g>
				<path class="st70" d="M156.81,49.04c2.94-3.5,5.54-7.22,7.74-11.12c3.24-5.78,5.48-11.7,6.69-17.62
					c-4.09,8.95-10.36,17.54-18.59,24.91C153.98,46.53,155.37,47.81,156.81,49.04z"/>
				<path class="st70" d="M156.81,50.71c-0.4,0-0.78-0.14-1.08-0.4c-1.48-1.26-2.91-2.58-4.26-3.92c-0.33-0.32-0.5-0.77-0.49-1.23
					c0.01-0.46,0.21-0.89,0.56-1.2c7.81-6.98,14.09-15.4,18.19-24.36c0.35-0.77,1.23-1.16,2.04-0.89c0.81,0.26,1.29,1.09,1.12,1.92
					c-1.26,6.13-3.57,12.22-6.87,18.1c-2.22,3.96-4.88,7.79-7.91,11.38c-0.29,0.34-0.7,0.55-1.14,0.59
					C156.91,50.71,156.86,50.71,156.81,50.71z M155.09,45.24c0.5,0.48,1.01,0.95,1.53,1.41c2.45-3.05,4.63-6.26,6.48-9.55
					c0.3-0.54,0.6-1.09,0.89-1.63C161.32,38.93,158.33,42.21,155.09,45.24z"/>
			</g>
			<g>
				<path class="st70" d="M155.78,50.25c0.35-0.4,0.7-0.8,1.04-1.21c-1.45-1.23-2.84-2.51-4.16-3.84c-0.54,0.48-1.09,0.96-1.64,1.43
					c0.59,0.48,1.19,0.96,1.8,1.43C153.79,48.82,154.78,49.55,155.78,50.25z"/>
				<path class="st70" d="M155.77,51.92c-0.33,0-0.67-0.1-0.96-0.3c-1.05-0.74-2.07-1.49-3.02-2.22c-0.56-0.43-1.14-0.9-1.84-1.46
					c-0.38-0.31-0.61-0.78-0.61-1.28c0-0.5,0.21-0.97,0.59-1.29c0.56-0.47,1.1-0.94,1.61-1.4c0.66-0.59,1.67-0.56,2.29,0.06
					c1.28,1.28,2.65,2.54,4.07,3.75c0.7,0.6,0.79,1.64,0.19,2.35c-0.35,0.41-0.7,0.83-1.06,1.23
					C156.7,51.72,156.24,51.92,155.77,51.92z"/>
			</g>
			<g>
				<path class="st70" d="M149.24,48.1c0.6-0.48,1.19-0.97,1.77-1.47c-0.62-0.5-1.23-1.01-1.83-1.53c-1.31,1.47-2.69,2.89-4.13,4.26
					c0.35,0.37,0.71,0.74,1.07,1.11C147.17,49.71,148.21,48.92,149.24,48.1z"/>
				<path class="st70" d="M146.12,52.14c-0.44,0-0.87-0.17-1.19-0.5c-0.37-0.38-0.74-0.76-1.09-1.14c-0.63-0.67-0.6-1.72,0.07-2.36
					c1.41-1.33,2.77-2.73,4.03-4.16c0.61-0.68,1.65-0.75,2.34-0.15c0.55,0.47,1.13,0.96,1.79,1.5c0.38,0.31,0.61,0.78,0.61,1.28
					c0,0.5-0.21,0.97-0.59,1.29c-0.68,0.58-1.26,1.05-1.81,1.5c0,0,0,0,0,0c-1.01,0.81-2.05,1.6-3.18,2.42
					C146.81,52.04,146.47,52.14,146.12,52.14z M149.24,48.1L149.24,48.1L149.24,48.1z"/>
			</g>
			<g>
				<path class="st70" d="M146.12,50.47c1.57,1.6,3.23,3.15,4.97,4.65c1.64-1.57,3.2-3.19,4.68-4.88c-1-0.7-1.99-1.43-2.96-2.18
					c-0.61-0.47-1.21-0.95-1.8-1.43c-0.58,0.49-1.17,0.99-1.77,1.47C148.21,48.92,147.17,49.71,146.12,50.47z"/>
				<path class="st70" d="M151.1,56.8c-0.39,0-0.77-0.13-1.09-0.4c-1.77-1.52-3.48-3.12-5.08-4.75c-0.34-0.35-0.51-0.82-0.47-1.31
					c0.04-0.48,0.29-0.93,0.68-1.21c1.09-0.79,2.08-1.55,3.05-2.32c0.53-0.42,1.08-0.88,1.74-1.44c0.61-0.52,1.51-0.53,2.14-0.02
					c0.67,0.55,1.23,0.99,1.77,1.41c0.91,0.7,1.89,1.42,2.9,2.14c0.39,0.27,0.64,0.7,0.7,1.17c0.06,0.47-0.09,0.94-0.4,1.3
					c-1.5,1.71-3.11,3.38-4.78,4.98C151.93,56.64,151.51,56.8,151.1,56.8z M148.68,50.66c0.77,0.74,1.55,1.48,2.36,2.2
					c0.77-0.77,1.52-1.55,2.25-2.34c-0.51-0.38-1.01-0.75-1.5-1.13c-0.25-0.19-0.5-0.39-0.76-0.6c-0.26,0.21-0.51,0.41-0.75,0.61
					C149.76,49.82,149.22,50.24,148.68,50.66z"/>
			</g>
			<g>
				<path class="st70" d="M226.65,82.14c-0.68,1.74-1.29,3.54-1.84,5.37c1.91,0.57,3.83,1.05,5.75,1.45
					c2.23-11.61,6.86-22.24,13.42-30.96c-0.67,0.52-1.32,1.06-1.97,1.62C235.38,65.41,230.21,72.99,226.65,82.14z"/>
				<path class="st70" d="M230.55,90.63c-0.11,0-0.23-0.01-0.34-0.03c-1.96-0.41-3.94-0.91-5.89-1.49
					c-0.43-0.13-0.78-0.42-0.99-0.81c-0.21-0.39-0.26-0.85-0.13-1.27c0.57-1.89,1.2-3.74,1.89-5.5l0,0
					c3.67-9.41,8.99-17.2,15.82-23.16c0.6-0.52,1.24-1.06,2.03-1.67c0.66-0.52,1.6-0.47,2.2,0.12c0.6,0.59,0.67,1.53,0.17,2.2
					c-6.41,8.51-10.94,18.98-13.11,30.27c-0.08,0.44-0.34,0.83-0.71,1.07C231.21,90.53,230.88,90.63,230.55,90.63z M226.91,86.37
					c0.78,0.21,1.57,0.41,2.35,0.59c1.25-5.85,3.11-11.47,5.53-16.73c-2.59,3.74-4.79,7.92-6.58,12.51l0,0
					C227.75,83.91,227.31,85.13,226.91,86.37z M226.65,82.14L226.65,82.14L226.65,82.14z"/>
			</g>
			<g>
				<path class="st70" d="M230.96,97.54c4.5,0.8,9.02,1.19,13.5,1.14c6.63-0.08,12.88-1.11,18.6-3.01
					c-9.79,0.93-20.37-0.2-30.87-3.65C231.72,93.82,231.3,95.67,230.96,97.54z"/>
				<path class="st70" d="M243.65,100.35c-4.27,0-8.64-0.39-12.99-1.17c-0.44-0.08-0.83-0.33-1.08-0.69
					c-0.25-0.37-0.35-0.82-0.27-1.25c0.35-1.91,0.78-3.81,1.27-5.65c0.12-0.44,0.41-0.82,0.82-1.04c0.4-0.22,0.88-0.26,1.32-0.12
					c9.95,3.27,20.39,4.5,30.19,3.57c0.85-0.08,1.62,0.49,1.79,1.32c0.18,0.83-0.3,1.66-1.11,1.93c-5.93,1.97-12.36,3.02-19.11,3.1
					C244.21,100.35,243.93,100.35,243.65,100.35z M232.93,96.17c3.87,0.6,7.73,0.88,11.51,0.83c0.62-0.01,1.24-0.02,1.85-0.05
					c-4.33-0.58-8.66-1.52-12.91-2.82C233.22,94.81,233.07,95.49,232.93,96.17z"/>
			</g>
			<g>
				<path class="st70" d="M229.39,97.24c0.52,0.1,1.04,0.2,1.57,0.3c0.34-1.87,0.76-3.72,1.24-5.52c-0.69-0.23-1.37-0.46-2.06-0.71
					c-0.12,0.76-0.24,1.51-0.34,2.28C229.63,94.81,229.5,96.03,229.39,97.24z"/>
				<path class="st70" d="M230.96,99.21c-0.1,0-0.2-0.01-0.3-0.03c-0.53-0.1-1.07-0.2-1.6-0.3c-0.84-0.17-1.41-0.94-1.34-1.79
					c0.11-1.28,0.25-2.54,0.41-3.73c0.09-0.7,0.21-1.44,0.35-2.32c0.08-0.49,0.37-0.92,0.8-1.17c0.43-0.25,0.94-0.3,1.41-0.13
					c0.68,0.25,1.36,0.48,2.02,0.69c0.84,0.28,1.32,1.16,1.09,2.02c-0.47,1.75-0.88,3.57-1.21,5.4
					C232.45,98.65,231.75,99.21,230.96,99.21z"/>
			</g>
			<g>
				<path class="st70" d="M227.98,90.51c0.72,0.28,1.44,0.54,2.16,0.8c0.13-0.79,0.26-1.57,0.41-2.35c-1.92-0.4-3.84-0.88-5.75-1.45
					c-0.15,0.49-0.29,0.99-0.43,1.48C225.56,89.52,226.76,90.03,227.98,90.51z"/>
				<path class="st70" d="M230.14,92.98c-0.19,0-0.38-0.03-0.56-0.1c-0.84-0.3-1.54-0.56-2.2-0.82h0c-1.2-0.47-2.41-0.97-3.68-1.54
					c-0.76-0.34-1.15-1.18-0.93-1.97c0.14-0.51,0.29-1.01,0.44-1.52c0.26-0.88,1.19-1.38,2.08-1.12c1.86,0.55,3.75,1.03,5.62,1.42
					c0.89,0.19,1.47,1.05,1.3,1.95c-0.14,0.71-0.27,1.46-0.41,2.3c-0.08,0.49-0.37,0.92-0.8,1.17
					C230.73,92.9,230.44,92.98,230.14,92.98z"/>
			</g>
			<g>
				<path class="st70" d="M224.37,88.99c-0.6,2.16-1.12,4.37-1.54,6.63c2.18,0.64,4.37,1.17,6.56,1.61
					c0.11-1.21,0.24-2.43,0.41-3.66c0.1-0.76,0.22-1.52,0.34-2.28c-0.72-0.26-1.44-0.52-2.16-0.8
					C226.76,90.03,225.56,89.52,224.37,88.99z"/>
				<path class="st70" d="M229.39,98.91c-0.11,0-0.22-0.01-0.33-0.03c-2.23-0.45-4.48-1-6.7-1.65c-0.82-0.24-1.33-1.07-1.17-1.91
					c0.43-2.3,0.96-4.58,1.58-6.77c0.13-0.47,0.46-0.86,0.9-1.06c0.44-0.21,0.95-0.21,1.39-0.01c1.23,0.55,2.38,1.03,3.54,1.48
					c0.63,0.25,1.3,0.5,2.11,0.79c0.76,0.27,1.21,1.05,1.09,1.84c-0.14,0.85-0.24,1.56-0.34,2.23c-0.15,1.14-0.29,2.35-0.4,3.58
					c-0.04,0.47-0.28,0.9-0.66,1.19C230.1,98.8,229.75,98.91,229.39,98.91z M224.77,94.44c1.05,0.28,2.1,0.54,3.15,0.78
					c0.07-0.63,0.15-1.25,0.23-1.86c0.04-0.31,0.09-0.63,0.14-0.96c-0.31-0.12-0.61-0.23-0.9-0.34c-0.63-0.24-1.25-0.5-1.89-0.76
					C225.23,92.33,224.99,93.38,224.77,94.44z"/>
			</g>
			<g>
				<path class="st70" d="M237.21,174.56c-1.85,0.28-3.71,0.65-5.57,1.09c0.46,1.94,1,3.84,1.62,5.71
					c11.17-3.87,22.69-5.18,33.52-3.86c-0.79-0.31-1.58-0.62-2.39-0.89C256.06,173.77,246.92,173.08,237.21,174.56z"/>
				<path class="st70" d="M233.26,183.03c-0.25,0-0.51-0.06-0.74-0.17c-0.4-0.2-0.71-0.55-0.85-0.97c-0.63-1.9-1.19-3.87-1.66-5.84
					c-0.1-0.43-0.03-0.89,0.2-1.26c0.23-0.38,0.61-0.65,1.04-0.75c1.92-0.45,3.84-0.83,5.7-1.11c0,0,0,0,0,0
					c9.98-1.53,19.39-0.82,27.97,2.12c0.75,0.26,1.54,0.55,2.47,0.92c0.78,0.31,1.21,1.15,1,1.97c-0.21,0.81-0.99,1.35-1.82,1.24
					c-10.57-1.29-21.9,0.01-32.77,3.78C233.63,183,233.44,183.03,233.26,183.03z M233.67,176.91c0.21,0.78,0.43,1.56,0.66,2.33
					c5.69-1.84,11.49-3.04,17.25-3.58c-4.53-0.37-9.25-0.19-14.12,0.56l0,0C236.22,176.4,234.95,176.64,233.67,176.91z"/>
			</g>
			<g>
				<path class="st70" d="M226.03,186c1.56,4.3,3.48,8.41,5.77,12.26c3.38,5.7,7.39,10.6,11.91,14.61
					c-5.7-8.01-10.01-17.74-12.27-28.55C229.63,184.8,227.82,185.36,226.03,186z"/>
				<path class="st70" d="M243.71,214.54c-0.4,0-0.79-0.14-1.11-0.42c-4.68-4.15-8.8-9.2-12.24-15c-2.31-3.9-4.3-8.12-5.9-12.55
					c-0.15-0.42-0.13-0.88,0.06-1.28c0.19-0.4,0.53-0.71,0.95-0.86c1.83-0.65,3.69-1.23,5.53-1.73c0.44-0.12,0.92-0.05,1.31,0.19
					c0.39,0.24,0.67,0.63,0.76,1.08c2.14,10.25,6.29,19.91,12,27.93c0.49,0.69,0.39,1.64-0.24,2.21
					C244.5,214.39,244.11,214.54,243.71,214.54z M228.2,187.02c1.42,3.65,3.11,7.14,5.04,10.39c0.32,0.53,0.64,1.06,0.97,1.58
					c-1.66-4.04-3.01-8.26-4.02-12.59C229.52,186.6,228.86,186.8,228.2,187.02z"/>
			</g>
			<g>
				<path class="st70" d="M225.5,184.49c0.17,0.5,0.35,1,0.53,1.5c1.79-0.64,3.6-1.2,5.4-1.69c-0.15-0.71-0.29-1.42-0.42-2.13
					c-0.72,0.27-1.43,0.55-2.14,0.84C227.73,183.49,226.61,183.98,225.5,184.49z"/>
				<path class="st70" d="M226.03,187.67c-0.68,0-1.32-0.42-1.57-1.1c-0.18-0.51-0.36-1.02-0.54-1.54
					c-0.27-0.81,0.11-1.69,0.88-2.05c1.17-0.54,2.33-1.05,3.44-1.51c0.66-0.27,1.35-0.54,2.19-0.86c0.46-0.18,0.98-0.14,1.41,0.11
					c0.43,0.24,0.73,0.67,0.82,1.16c0.13,0.71,0.27,1.42,0.41,2.09c0.18,0.87-0.35,1.72-1.2,1.95c-1.75,0.47-3.53,1.03-5.28,1.65
					C226.4,187.64,226.21,187.67,226.03,187.67z"/>
			</g>
			<g>
				<path class="st70" d="M230.63,179.91c0.12,0.76,0.25,1.52,0.38,2.27c0.74-0.28,1.49-0.56,2.24-0.82
					c-0.62-1.87-1.16-3.77-1.62-5.71c-0.5,0.12-1,0.24-1.5,0.37C230.27,177.31,230.43,178.61,230.63,179.91z"/>
				<path class="st70" d="M231.02,183.85c-0.28,0-0.57-0.07-0.82-0.22c-0.43-0.24-0.73-0.67-0.82-1.16
					c-0.16-0.88-0.28-1.62-0.39-2.32c-0.2-1.28-0.36-2.57-0.51-3.96c-0.09-0.82,0.44-1.59,1.24-1.79c0.51-0.13,1.02-0.26,1.53-0.38
					c0.9-0.21,1.79,0.34,2.01,1.24c0.45,1.89,0.98,3.76,1.58,5.57c0.29,0.87-0.18,1.8-1.04,2.1c-0.68,0.24-1.4,0.5-2.19,0.8
					C231.42,183.81,231.22,183.85,231.02,183.85z"/>
			</g>
			<g>
				<path class="st70" d="M230.14,176.02c-2.17,0.56-4.35,1.22-6.52,1.98c0.54,2.2,1.17,4.37,1.88,6.49
					c1.11-0.51,2.23-1.01,3.37-1.48c0.71-0.29,1.43-0.57,2.14-0.84c-0.14-0.75-0.27-1.51-0.38-2.27
					C230.43,178.61,230.27,177.31,230.14,176.02z"/>
				<path class="st70" d="M225.5,186.16c-0.22,0-0.45-0.05-0.66-0.14c-0.44-0.19-0.77-0.55-0.92-1c-0.73-2.15-1.38-4.38-1.92-6.63
					c-0.2-0.83,0.26-1.69,1.07-1.97c2.2-0.77,4.44-1.45,6.65-2.02c0.47-0.12,0.97-0.03,1.37,0.25c0.4,0.28,0.66,0.71,0.71,1.2
					c0.14,1.33,0.3,2.58,0.49,3.8c0.1,0.66,0.22,1.37,0.38,2.22c0.14,0.79-0.3,1.57-1.05,1.86c-0.81,0.31-1.47,0.57-2.1,0.83
					c-1.07,0.44-2.18,0.93-3.3,1.45C225.98,186.11,225.74,186.16,225.5,186.16z M225.62,179.09c0.28,1.05,0.58,2.09,0.9,3.12
					c0.58-0.26,1.16-0.5,1.72-0.73c0.29-0.12,0.58-0.24,0.9-0.36c-0.06-0.33-0.11-0.65-0.15-0.95c-0.1-0.66-0.2-1.33-0.28-2.02
					C227.67,178.43,226.64,178.75,225.62,179.09z"/>
			</g>
			<g>
				<path class="st70" d="M162.45,229.93c-1.17-1.46-2.42-2.89-3.73-4.28c-1.45,1.37-2.83,2.79-4.13,4.26
					c8.94,7.74,15.84,17.06,20.1,27.1c-0.12-0.84-0.26-1.68-0.42-2.51C172.57,245.85,168.59,237.59,162.45,229.93z"/>
				<path class="st70" d="M174.69,258.67c-0.66,0-1.27-0.39-1.54-1.02c-4.16-9.8-10.96-18.96-19.66-26.49
					c-0.34-0.29-0.54-0.71-0.57-1.15c-0.03-0.45,0.12-0.89,0.42-1.22c1.33-1.49,2.75-2.96,4.23-4.36c0.32-0.31,0.75-0.47,1.2-0.46
					c0.44,0.01,0.86,0.2,1.17,0.52c1.36,1.44,2.64,2.91,3.82,4.38l0,0c6.31,7.88,10.4,16.38,12.15,25.28
					c0.15,0.78,0.29,1.61,0.43,2.6c0.12,0.83-0.4,1.62-1.2,1.85C174.99,258.65,174.84,258.67,174.69,258.67z M156.96,229.77
					c4.44,4.01,8.38,8.43,11.72,13.15c-1.94-4.11-4.46-8.11-7.54-11.95c-0.78-0.98-1.62-1.96-2.49-2.94
					C158.08,228.61,157.51,229.19,156.96,229.77z"/>
			</g>
			<g>
				<path class="st70" d="M146.96,225.96c-2.94,3.5-5.54,7.22-7.74,11.12c-3.24,5.78-5.48,11.7-6.69,17.62
					c4.09-8.95,10.36-17.54,18.59-24.91C149.8,228.47,148.41,227.19,146.96,225.96z"/>
				<path class="st70" d="M132.53,256.37c-0.17,0-0.35-0.03-0.52-0.08c-0.81-0.26-1.29-1.09-1.12-1.92
					c1.26-6.13,3.57-12.22,6.87-18.1c2.22-3.95,4.88-7.78,7.91-11.38c0.29-0.34,0.7-0.55,1.14-0.59c0.44-0.04,0.88,0.1,1.22,0.39
					c1.48,1.26,2.91,2.58,4.26,3.92c0.33,0.32,0.5,0.77,0.49,1.23c-0.01,0.46-0.21,0.89-0.56,1.2c-7.81,6.98-14.09,15.4-18.19,24.36
					C133.77,256,133.17,256.37,132.53,256.37z M147.15,228.35c-2.45,3.05-4.63,6.26-6.48,9.55c-0.3,0.54-0.6,1.09-0.89,1.63
					c2.66-3.46,5.65-6.74,8.9-9.77C148.19,229.28,147.67,228.81,147.15,228.35z"/>
			</g>
			<g>
				<path class="st70" d="M148,224.75c-0.35,0.4-0.7,0.8-1.04,1.21c1.45,1.23,2.84,2.51,4.16,3.84c0.54-0.48,1.09-0.96,1.64-1.43
					c-0.59-0.48-1.19-0.96-1.8-1.43C149.98,226.18,148.99,225.45,148,224.75z"/>
				<path class="st70" d="M151.12,231.46c-0.43,0-0.85-0.16-1.18-0.49c-1.28-1.28-2.65-2.54-4.07-3.75c-0.7-0.6-0.79-1.64-0.19-2.35
					c0.35-0.41,0.7-0.83,1.06-1.23c0.56-0.64,1.52-0.75,2.21-0.26c1.05,0.74,2.07,1.49,3.02,2.22c0.56,0.43,1.15,0.9,1.84,1.46
					c0.38,0.31,0.61,0.78,0.61,1.28c0,0.5-0.21,0.97-0.59,1.29c-0.56,0.47-1.1,0.94-1.61,1.4
					C151.92,231.32,151.52,231.46,151.12,231.46z"/>
			</g>
			<g>
				<path class="st70" d="M154.53,226.9c-0.6,0.48-1.19,0.97-1.77,1.47c0.62,0.5,1.23,1.01,1.83,1.53c1.31-1.47,2.69-2.89,4.13-4.26
					c-0.35-0.37-0.71-0.74-1.07-1.11C156.6,225.29,155.56,226.08,154.53,226.9z"/>
				<path class="st70" d="M154.59,231.57c-0.39,0-0.78-0.13-1.09-0.41c-0.55-0.47-1.13-0.96-1.79-1.5
					c-0.38-0.31-0.61-0.78-0.61-1.28c0-0.5,0.21-0.97,0.59-1.29c0.69-0.58,1.26-1.06,1.81-1.5l0,0c1-0.8,2.07-1.61,3.18-2.42
					c0.67-0.49,1.59-0.41,2.17,0.18c0.37,0.38,0.73,0.76,1.09,1.14c0.63,0.67,0.6,1.72-0.07,2.36c-1.41,1.33-2.77,2.73-4.03,4.16
					C155.5,231.38,155.05,231.57,154.59,231.57z M154.53,226.9L154.53,226.9L154.53,226.9z"/>
			</g>
			<g>
				<path class="st70" d="M157.65,224.53c-1.57-1.6-3.23-3.15-4.97-4.65c-1.64,1.57-3.2,3.19-4.68,4.88c1,0.7,1.99,1.43,2.96,2.18
					c0.61,0.47,1.21,0.95,1.8,1.43c0.58-0.49,1.17-0.99,1.77-1.47C155.56,226.08,156.6,225.29,157.65,224.53z"/>
				<path class="st70" d="M152.76,230.04c-0.37,0-0.75-0.13-1.06-0.38c-0.67-0.55-1.23-0.99-1.77-1.41
					c-0.92-0.71-1.89-1.43-2.9-2.14c-0.39-0.27-0.64-0.7-0.7-1.17c-0.06-0.47,0.09-0.94,0.4-1.3c1.5-1.71,3.11-3.38,4.78-4.98
					c0.62-0.59,1.59-0.62,2.24-0.06c1.77,1.52,3.48,3.12,5.08,4.75c0.34,0.35,0.51,0.82,0.47,1.31c-0.04,0.48-0.29,0.93-0.68,1.21
					c-1.07,0.78-2.09,1.56-3.05,2.32c-0.52,0.42-1.07,0.88-1.74,1.44C153.53,229.9,153.15,230.04,152.76,230.04z M150.48,224.48
					c0.51,0.38,1.01,0.75,1.5,1.13c0.25,0.19,0.5,0.39,0.76,0.6c0.26-0.21,0.51-0.42,0.75-0.61c0.52-0.41,1.05-0.83,1.61-1.25
					c-0.77-0.74-1.56-1.48-2.36-2.2C151.97,222.91,151.21,223.69,150.48,224.48z"/>
			</g>
			<g>
				<path class="st70" d="M77.12,192.86c0.68-1.74,1.29-3.54,1.84-5.37c-1.91-0.57-3.83-1.05-5.75-1.45
					c-2.23,11.61-6.86,22.24-13.42,30.96c0.67-0.52,1.32-1.06,1.97-1.62C68.39,209.59,73.56,202.01,77.12,192.86z"/>
				<path class="st70" d="M59.8,218.66c-0.42,0-0.85-0.16-1.17-0.48c-0.6-0.59-0.67-1.53-0.17-2.2
					c6.41-8.51,10.94-18.98,13.11-30.27c0.08-0.44,0.34-0.83,0.71-1.07c0.37-0.25,0.83-0.34,1.27-0.25
					c1.96,0.41,3.94,0.91,5.89,1.49c0.43,0.13,0.78,0.42,0.99,0.81c0.21,0.39,0.26,0.85,0.13,1.27c-0.57,1.89-1.2,3.74-1.89,5.5l0,0
					c-3.67,9.41-8.99,17.2-15.82,23.16c-0.6,0.52-1.24,1.06-2.03,1.67C60.53,218.55,60.16,218.66,59.8,218.66z M74.52,188.03
					c-1.25,5.85-3.11,11.47-5.53,16.73c2.59-3.74,4.79-7.92,6.58-12.51l0,0c0.46-1.17,0.89-2.38,1.29-3.63
					C76.08,188.41,75.3,188.22,74.52,188.03z"/>
			</g>
			<g>
				<path class="st70" d="M72.81,177.46c-4.5-0.8-9.02-1.19-13.5-1.14c-6.63,0.08-12.88,1.11-18.6,3.01
					c9.79-0.93,20.37,0.2,30.87,3.65C72.06,181.18,72.47,179.33,72.81,177.46z"/>
				<path class="st70" d="M71.57,184.65c-0.18,0-0.35-0.03-0.52-0.08c-9.95-3.27-20.39-4.5-30.19-3.57
					c-0.85,0.08-1.62-0.49-1.79-1.32c-0.18-0.83,0.3-1.66,1.11-1.93c5.93-1.97,12.36-3.02,19.11-3.1c4.54-0.05,9.19,0.34,13.82,1.16
					c0.44,0.08,0.83,0.33,1.08,0.69s0.35,0.82,0.27,1.25c-0.35,1.91-0.78,3.81-1.27,5.65c-0.12,0.44-0.41,0.82-0.82,1.04
					C72.12,184.59,71.85,184.65,71.57,184.65z M57.47,178.04c4.33,0.58,8.66,1.52,12.91,2.82c0.16-0.67,0.31-1.35,0.46-2.03
					c-3.87-0.6-7.73-0.88-11.51-0.83C58.71,178,58.09,178.02,57.47,178.04z"/>
			</g>
			<g>
				<path class="st70" d="M74.38,177.76c-0.52-0.1-1.04-0.2-1.57-0.3c-0.34,1.87-0.76,3.71-1.24,5.52c0.69,0.23,1.37,0.46,2.06,0.71
					c0.12-0.76,0.24-1.51,0.34-2.28C74.14,180.19,74.27,178.97,74.38,177.76z"/>
				<path class="st70" d="M73.63,185.36c-0.19,0-0.38-0.03-0.56-0.1c-0.69-0.25-1.36-0.48-2.01-0.69c-0.84-0.28-1.32-1.16-1.09-2.02
					c0.47-1.75,0.88-3.57,1.21-5.4c0.17-0.9,1.03-1.5,1.93-1.34c0.53,0.1,1.07,0.2,1.6,0.3c0.84,0.17,1.41,0.94,1.34,1.79
					c-0.11,1.28-0.25,2.54-0.41,3.73c-0.09,0.7-0.21,1.44-0.35,2.32c-0.08,0.49-0.37,0.92-0.8,1.17
					C74.22,185.28,73.92,185.36,73.63,185.36z"/>
			</g>
			<g>
				<path class="st70" d="M75.79,184.49c-0.72-0.28-1.44-0.54-2.16-0.8c-0.13,0.79-0.26,1.57-0.41,2.35
					c1.92,0.4,3.84,0.88,5.75,1.45c0.15-0.49,0.29-0.99,0.43-1.48C78.21,185.48,77.01,184.97,75.79,184.49z"/>
				<path class="st70" d="M78.97,189.16c-0.16,0-0.32-0.02-0.48-0.07c-1.86-0.55-3.75-1.03-5.62-1.42c-0.89-0.19-1.47-1.05-1.3-1.95
					c0.14-0.71,0.27-1.46,0.41-2.3c0.08-0.49,0.37-0.92,0.8-1.17c0.43-0.25,0.94-0.3,1.41-0.13c0.85,0.3,1.55,0.56,2.2,0.82l0,0
					c1.2,0.47,2.41,0.97,3.68,1.54c0.76,0.34,1.15,1.18,0.93,1.97c-0.14,0.51-0.29,1.02-0.44,1.52
					C80.35,188.69,79.69,189.16,78.97,189.16z"/>
			</g>
			<g>
				<path class="st70" d="M79.4,186c0.6-2.16,1.12-4.37,1.54-6.63c-2.18-0.64-4.37-1.17-6.56-1.61c-0.11,1.21-0.24,2.43-0.41,3.66
					c-0.1,0.76-0.22,1.52-0.34,2.28c0.72,0.26,1.44,0.52,2.16,0.8C77.01,184.97,78.21,185.48,79.4,186z"/>
				<path class="st70" d="M79.4,187.67c-0.23,0-0.46-0.05-0.68-0.14c-1.23-0.55-2.39-1.03-3.54-1.48c-0.62-0.24-1.3-0.49-2.11-0.79
					c-0.76-0.27-1.21-1.05-1.08-1.84c0.14-0.85,0.25-1.56,0.34-2.23c0.15-1.14,0.29-2.35,0.4-3.58c0.04-0.47,0.28-0.9,0.66-1.19
					c0.38-0.28,0.86-0.39,1.33-0.3c2.23,0.45,4.49,1,6.7,1.65c0.82,0.24,1.33,1.07,1.17,1.91c-0.43,2.3-0.96,4.58-1.58,6.77
					c-0.13,0.47-0.46,0.86-0.9,1.06C79.88,187.62,79.64,187.67,79.4,187.67z M75.49,182.59c0.32,0.12,0.61,0.23,0.9,0.34
					c0.62,0.24,1.25,0.5,1.89,0.76c0.26-1.03,0.5-2.08,0.72-3.14c-1.05-0.28-2.1-0.54-3.15-0.78c-0.07,0.63-0.15,1.25-0.23,1.86
					C75.59,181.95,75.54,182.26,75.49,182.59z"/>
			</g>
			<g>
				<path class="st70" d="M66.56,100.44c1.85-0.28,3.71-0.65,5.57-1.09c-0.46-1.94-1-3.84-1.62-5.71
					C59.35,97.51,47.82,98.82,37,97.5c0.79,0.31,1.58,0.62,2.39,0.89C47.71,101.23,56.85,101.92,66.56,100.44z"/>
				<path class="st70" d="M56.8,102.87c-6.29,0-12.3-0.97-17.95-2.9c-0.75-0.26-1.54-0.55-2.47-0.92c-0.78-0.31-1.21-1.15-1-1.97
					c0.21-0.81,0.99-1.35,1.82-1.24c10.57,1.3,21.9-0.01,32.77-3.78c0.42-0.15,0.89-0.12,1.29,0.08c0.4,0.2,0.71,0.55,0.85,0.97
					c0.63,1.9,1.19,3.87,1.66,5.84c0.1,0.43,0.03,0.89-0.2,1.26c-0.23,0.38-0.61,0.65-1.04,0.75c-1.92,0.45-3.84,0.83-5.7,1.11l0,0
					C63.41,102.61,60.06,102.87,56.8,102.87z M66.56,100.44L66.56,100.44L66.56,100.44z M52.19,99.34
					c4.53,0.37,9.25,0.19,14.12-0.56c1.24-0.19,2.51-0.42,3.79-0.69c-0.21-0.78-0.43-1.56-0.66-2.33
					C63.75,97.6,57.94,98.8,52.19,99.34z"/>
			</g>
			<g>
				<path class="st70" d="M77.74,89c-1.56-4.3-3.48-8.41-5.77-12.26c-3.38-5.7-7.39-10.6-11.91-14.61
					c5.7,8.01,10.01,17.74,12.27,28.55C74.15,90.2,75.95,89.64,77.74,89z"/>
				<path class="st70" d="M72.34,92.36c-0.31,0-0.61-0.08-0.87-0.25c-0.39-0.24-0.67-0.63-0.76-1.08
					c-2.14-10.25-6.29-19.91-12-27.93c-0.49-0.69-0.39-1.64,0.24-2.21c0.63-0.57,1.59-0.57,2.22-0.01c4.68,4.15,8.79,9.2,12.24,15
					c2.31,3.9,4.3,8.12,5.9,12.55c0.15,0.42,0.13,0.88-0.06,1.28c-0.19,0.4-0.53,0.71-0.95,0.86c-1.83,0.65-3.69,1.23-5.53,1.73
					C72.63,92.34,72.48,92.36,72.34,92.36z M69.57,76.01c1.66,4.04,3.01,8.26,4.02,12.59c0.66-0.2,1.33-0.4,1.99-0.62
					c-1.42-3.65-3.11-7.14-5.04-10.39C70.22,77.06,69.9,76.53,69.57,76.01z"/>
			</g>
			<g>
				<path class="st70" d="M78.27,90.5c-0.17-0.5-0.35-1-0.53-1.5c-1.79,0.64-3.6,1.2-5.4,1.69c0.15,0.71,0.29,1.42,0.42,2.13
					c0.72-0.27,1.43-0.55,2.14-0.84C76.04,91.51,77.16,91.02,78.27,90.5z"/>
				<path class="st70" d="M72.75,94.49c-0.28,0-0.57-0.07-0.82-0.22c-0.43-0.24-0.73-0.67-0.82-1.16c-0.13-0.72-0.27-1.42-0.41-2.09
					c-0.18-0.87,0.35-1.72,1.2-1.95c1.75-0.47,3.53-1.03,5.28-1.65c0.87-0.31,1.82,0.14,2.13,1.01c0.18,0.51,0.36,1.02,0.54,1.54
					c0.27,0.81-0.11,1.69-0.88,2.05c-1.17,0.54-2.33,1.05-3.44,1.51c-0.66,0.27-1.35,0.54-2.19,0.86
					C73.16,94.46,72.95,94.49,72.75,94.49z"/>
			</g>
			<g>
				<path class="st70" d="M73.14,95.09c-0.12-0.76-0.25-1.52-0.38-2.27c-0.74,0.28-1.49,0.56-2.24,0.82
					c0.62,1.87,1.16,3.77,1.62,5.71c0.5-0.12,1-0.24,1.5-0.37C73.5,97.69,73.34,96.39,73.14,95.09z"/>
				<path class="st70" d="M72.13,101.02c-0.76,0-1.44-0.52-1.62-1.28c-0.45-1.89-0.98-3.76-1.58-5.57c-0.29-0.87,0.18-1.8,1.04-2.1
					c0.68-0.24,1.4-0.5,2.19-0.8c0.46-0.18,0.98-0.14,1.41,0.11c0.43,0.24,0.73,0.67,0.82,1.16c0.16,0.88,0.28,1.61,0.39,2.32
					c0,0,0,0,0,0c0.2,1.28,0.36,2.57,0.51,3.96c0.09,0.82-0.44,1.59-1.24,1.79c-0.51,0.13-1.02,0.26-1.53,0.38
					C72.39,101,72.26,101.02,72.13,101.02z"/>
			</g>
			<g>
				<path class="st70" d="M73.64,98.98c2.17-0.56,4.35-1.22,6.52-1.98c-0.54-2.2-1.17-4.37-1.88-6.49
					c-1.11,0.51-2.23,1.01-3.37,1.48c-0.71,0.29-1.43,0.57-2.14,0.84c0.14,0.75,0.27,1.51,0.38,2.27
					C73.34,96.39,73.5,97.69,73.64,98.98z"/>
				<path class="st70" d="M73.64,100.65c-0.34,0-0.67-0.1-0.95-0.3c-0.4-0.28-0.66-0.71-0.71-1.2c-0.14-1.34-0.3-2.58-0.49-3.8
					c-0.1-0.67-0.22-1.38-0.38-2.22c-0.14-0.79,0.3-1.57,1.05-1.86c0.81-0.31,1.47-0.57,2.1-0.83c1.07-0.44,2.18-0.93,3.3-1.45
					c0.43-0.2,0.92-0.21,1.36-0.02c0.44,0.19,0.77,0.55,0.92,1c0.73,2.15,1.38,4.38,1.92,6.63c0.2,0.83-0.26,1.69-1.07,1.97
					c-2.21,0.77-4.45,1.45-6.65,2.02C73.91,100.63,73.77,100.65,73.64,100.65z M74.64,93.89c0.06,0.33,0.11,0.65,0.15,0.95
					c0.1,0.66,0.2,1.33,0.28,2.02c1.03-0.29,2.06-0.61,3.08-0.95c-0.28-1.05-0.58-2.09-0.9-3.12c-0.58,0.26-1.16,0.5-1.72,0.73
					C75.24,93.64,74.95,93.76,74.64,93.89z"/>
			</g>
			<g>
				<path class="st70" d="M132.85,80.1c2.45,3.06,5.06,6.05,7.81,8.97c3.03-2.87,5.92-5.84,8.66-8.92
					c-18.73-16.21-33.18-35.74-42.11-56.78c0.25,1.76,0.54,3.51,0.88,5.26C111.65,46.73,119.98,64.04,132.85,80.1z"/>
				<path class="st70" d="M140.67,90.74c-0.02,0-0.03,0-0.05,0c-0.44-0.01-0.86-0.2-1.17-0.52c-2.81-2.98-5.46-6.03-7.9-9.08l0,0
					c-13.04-16.27-21.48-33.83-25.1-52.18c-0.32-1.6-0.6-3.3-0.89-5.35c-0.12-0.83,0.4-1.62,1.2-1.85c0.81-0.22,1.66,0.18,1.99,0.96
					c8.84,20.8,23.24,40.22,41.67,56.17c0.34,0.29,0.54,0.71,0.57,1.15s-0.12,0.89-0.42,1.22c-2.76,3.09-5.7,6.13-8.76,9.02
					C141.5,90.58,141.09,90.74,140.67,90.74z M134.16,79.05c2.05,2.56,4.26,5.12,6.58,7.64c2.14-2.08,4.23-4.22,6.22-6.4
					c-14.53-12.83-26.54-27.79-35.29-43.88C115.85,51.31,123.39,65.62,134.16,79.05L134.16,79.05z"/>
			</g>
			<g>
				<path class="st70" d="M165.31,88.41c6.17-7.32,11.61-15.12,16.21-23.31c6.8-12.1,11.48-24.52,14.02-36.91
					c-8.57,18.74-21.7,36.75-38.96,52.18C159.37,83.14,162.28,85.82,165.31,88.41z"/>
				<path class="st70" d="M165.31,90.08c-0.4,0-0.78-0.14-1.08-0.4c-3.06-2.61-6.03-5.34-8.82-8.13c-0.33-0.32-0.5-0.77-0.49-1.23
					c0.01-0.46,0.21-0.89,0.56-1.2c16.54-14.79,29.87-32.65,38.55-51.63c0.35-0.77,1.23-1.16,2.04-0.89
					c0.81,0.26,1.29,1.09,1.12,1.92c-2.6,12.65-7.37,25.23-14.2,37.39c-4.6,8.19-10.11,16.12-16.39,23.57
					c-0.29,0.34-0.7,0.55-1.14,0.59C165.4,90.08,165.36,90.08,165.31,90.08z M159.02,80.42c1.96,1.91,4,3.79,6.09,5.61
					c5.69-6.91,10.72-14.22,14.95-21.75c3.97-7.06,7.22-14.26,9.74-21.53C181.7,56.45,171.24,69.26,159.02,80.42z"/>
			</g>
			<g>
				<path class="st70" d="M163.14,90.94c0.74-0.84,1.46-1.68,2.18-2.53c-3.04-2.59-5.95-5.27-8.72-8.04
					c-1.13,1.01-2.27,2.01-3.44,2.99c1.24,1.01,2.5,2.02,3.77,3.01C158.97,87.95,161.05,89.47,163.14,90.94z"/>
				<path class="st70" d="M163.13,92.61c-0.33,0-0.67-0.1-0.96-0.3c-2.18-1.54-4.29-3.09-6.27-4.61c-1.16-0.9-2.37-1.86-3.81-3.04
					c-0.38-0.31-0.61-0.78-0.61-1.28c0-0.5,0.21-0.97,0.59-1.29c1.18-1,2.32-1.99,3.4-2.96c0.66-0.59,1.67-0.56,2.29,0.06
					c2.73,2.72,5.63,5.39,8.63,7.95c0.7,0.6,0.79,1.64,0.19,2.35c-0.73,0.87-1.47,1.73-2.2,2.56
					C164.06,92.41,163.6,92.61,163.13,92.61z M155.76,83.33c0.78,0.62,1.49,1.18,2.19,1.72c1.57,1.21,3.22,2.43,4.92,3.65
					c0.03-0.04,0.06-0.07,0.1-0.11c-2.21-1.93-4.37-3.92-6.44-5.93C156.27,82.88,156.02,83.1,155.76,83.33z"/>
			</g>
			<g>
				<path class="st70" d="M149.43,86.44c1.26-1.01,2.49-2.04,3.72-3.07c-1.29-1.06-2.57-2.12-3.83-3.21
					c-2.74,3.07-5.63,6.05-8.66,8.92c0.74,0.78,1.49,1.56,2.24,2.33C145.11,89.81,147.29,88.16,149.43,86.44z"/>
				<path class="st70" d="M142.91,93.08c-0.44,0-0.87-0.17-1.19-0.5c-0.81-0.82-1.55-1.6-2.27-2.36c-0.63-0.67-0.6-1.72,0.07-2.36
					c2.99-2.83,5.87-5.79,8.56-8.82c0.61-0.68,1.65-0.75,2.34-0.15c1.16,1,2.4,2.04,3.79,3.18c0.38,0.31,0.61,0.78,0.61,1.28
					c0,0.5-0.21,0.97-0.59,1.29c-1.42,1.2-2.61,2.19-3.75,3.1l0,0c-2.09,1.68-4.24,3.32-6.59,5.02
					C143.6,92.97,143.25,93.08,142.91,93.08z M143.02,89.13c0.02,0.02,0.05,0.05,0.07,0.07c1.86-1.37,3.6-2.71,5.3-4.07c0,0,0,0,0,0
					c0.68-0.55,1.39-1.12,2.15-1.76c-0.36-0.3-0.72-0.6-1.07-0.89C147.41,84.75,145.25,86.97,143.02,89.13z"/>
			</g>
			<g>
				<path class="st70" d="M142.91,91.41c3.29,3.35,6.77,6.61,10.42,9.75c3.43-3.28,6.7-6.69,9.8-10.22
					c-2.09-1.47-4.16-2.99-6.21-4.57c-1.28-0.99-2.53-1.99-3.77-3.01c-1.22,1.04-2.46,2.06-3.72,3.07
					C147.29,88.16,145.11,89.81,142.91,91.41z"/>
				<path class="st70" d="M153.33,102.83c-0.39,0-0.77-0.13-1.09-0.4c-3.68-3.16-7.22-6.47-10.53-9.85
					c-0.34-0.35-0.51-0.82-0.47-1.31c0.04-0.48,0.29-0.93,0.68-1.21c2.3-1.67,4.41-3.28,6.46-4.92c1.12-0.89,2.29-1.86,3.68-3.04
					c0.61-0.52,1.51-0.53,2.14-0.02c1.41,1.16,2.6,2.1,3.74,2.98c1.94,1.5,4.01,3.02,6.15,4.53c0.39,0.27,0.64,0.7,0.7,1.17
					c0.06,0.47-0.09,0.94-0.4,1.3c-3.11,3.54-6.44,7.01-9.9,10.32C154.16,102.67,153.75,102.83,153.33,102.83z M145.46,91.61
					c2.49,2.48,5.11,4.93,7.81,7.29c2.55-2.49,5.02-5.06,7.38-7.67c-1.64-1.18-3.23-2.36-4.74-3.53c-0.86-0.66-1.75-1.36-2.73-2.16
					c-0.97,0.82-1.85,1.53-2.69,2.21C148.86,89.04,147.21,90.31,145.46,91.61z"/>
			</g>
			<g>
				<path class="st70" d="M192.08,92.32c-1.42,3.65-2.71,7.41-3.87,11.25c4,1.19,8.02,2.21,12.05,3.04
					c4.67-24.33,14.36-46.6,28.11-64.86c-1.39,1.1-2.77,2.22-4.12,3.39C210.38,57.27,199.55,73.14,192.08,92.32z"/>
				<path class="st70" d="M200.27,108.28c-0.11,0-0.23-0.01-0.34-0.03c-4.06-0.84-8.16-1.87-12.19-3.07
					c-0.43-0.13-0.78-0.42-0.99-0.81c-0.21-0.39-0.26-0.85-0.13-1.27c1.18-3.92,2.49-7.75,3.91-11.38l0,0
					c7.57-19.43,18.55-35.52,32.64-47.82c1.23-1.08,2.56-2.17,4.18-3.45c0.66-0.52,1.6-0.47,2.2,0.12c0.6,0.59,0.67,1.53,0.17,2.2
					c-13.59,18.05-23.21,40.24-27.81,64.17c-0.08,0.44-0.34,0.83-0.71,1.07C200.92,108.18,200.6,108.28,200.27,108.28z
					 M190.31,102.44c2.87,0.82,5.77,1.55,8.65,2.18c3.84-19,10.8-36.88,20.36-52.5c-10.81,11.07-19.43,24.76-25.68,40.8l0,0
					C192.45,95.97,191.33,99.17,190.31,102.44z M192.08,92.32L192.08,92.32L192.08,92.32z"/>
			</g>
			<g>
				<path class="st70" d="M201.11,124.58c9.43,1.68,18.9,2.49,28.29,2.38c13.88-0.17,26.98-2.32,38.98-6.31
					c-20.52,1.95-42.68-0.42-64.67-7.64C202.7,116.8,201.83,120.66,201.11,124.58z"/>
				<path class="st70" d="M227.71,128.64c-8.84,0-17.88-0.81-26.89-2.42c-0.44-0.08-0.83-0.33-1.08-0.69
					c-0.25-0.37-0.35-0.82-0.27-1.25c0.73-3.96,1.61-7.89,2.63-11.7c0.12-0.44,0.41-0.82,0.82-1.04c0.4-0.22,0.88-0.26,1.32-0.12
					c21.08,6.93,43.21,9.55,63.99,7.57c0.85-0.08,1.62,0.49,1.79,1.32c0.18,0.83-0.3,1.66-1.11,1.93
					c-12.25,4.08-25.54,6.23-39.49,6.4C228.85,128.64,228.28,128.64,227.71,128.64z M203.07,123.23c8.83,1.48,17.67,2.17,26.31,2.07
					c8.1-0.1,15.96-0.88,23.52-2.33c-15.91-0.17-32.24-2.82-48.02-7.82C204.21,117.79,203.6,120.5,203.07,123.23z"/>
			</g>
			<g>
				<path class="st70" d="M197.83,123.96c1.09,0.22,2.19,0.42,3.28,0.62c0.72-3.92,1.59-7.78,2.6-11.57
					c-1.44-0.47-2.87-0.97-4.31-1.48c-0.26,1.58-0.5,3.17-0.72,4.77C198.34,118.86,198.06,121.42,197.83,123.96z"/>
				<path class="st70" d="M201.11,126.25c-0.1,0-0.2-0.01-0.3-0.03c-1.12-0.2-2.23-0.41-3.31-0.63c-0.84-0.17-1.41-0.94-1.34-1.79
					c0.24-2.66,0.53-5.26,0.86-7.74c0.2-1.45,0.43-2.98,0.72-4.82c0.08-0.49,0.37-0.92,0.8-1.17c0.43-0.25,0.94-0.3,1.41-0.13
					c1.45,0.52,2.89,1.01,4.27,1.47c0.84,0.28,1.32,1.16,1.09,2.02c-0.99,3.72-1.86,7.57-2.57,11.44
					C202.61,125.69,201.9,126.25,201.11,126.25z M199.64,122.61c0.05,0.01,0.1,0.02,0.14,0.03c0.56-2.88,1.21-5.74,1.92-8.54
					c-0.32-0.11-0.64-0.22-0.96-0.33c-0.15,0.98-0.28,1.88-0.4,2.75C200.08,118.48,199.84,120.52,199.64,122.61z"/>
			</g>
			<g>
				<path class="st70" d="M194.88,109.85c1.5,0.59,3.01,1.14,4.52,1.68c0.27-1.65,0.55-3.29,0.87-4.92
					c-4.03-0.84-8.05-1.85-12.05-3.04c-0.31,1.03-0.61,2.07-0.9,3.11C189.8,107.79,192.32,108.85,194.88,109.85z"/>
				<path class="st70" d="M199.4,113.2c-0.19,0-0.38-0.03-0.56-0.1c-1.75-0.63-3.2-1.17-4.56-1.7c-2.5-0.97-5-2.02-7.64-3.2
					c-0.76-0.34-1.15-1.18-0.93-1.97c0.31-1.11,0.61-2.14,0.91-3.14c0.26-0.88,1.19-1.38,2.08-1.12c3.94,1.17,7.95,2.18,11.92,3.01
					c0.89,0.19,1.47,1.05,1.3,1.95c-0.29,1.5-0.57,3.09-0.86,4.87c-0.08,0.49-0.37,0.92-0.8,1.17
					C199.99,113.12,199.7,113.2,199.4,113.2z M189.32,105.74c2.11,0.92,4.14,1.76,6.17,2.55c0,0,0,0,0,0
					c0.82,0.32,1.67,0.64,2.6,0.98c0.08-0.47,0.16-0.92,0.24-1.37c-2.99-0.66-6-1.41-8.98-2.27
					C189.34,105.67,189.33,105.71,189.32,105.74z"/>
			</g>
			<g>
				<path class="st70" d="M187.32,106.68c-1.26,4.52-2.34,9.16-3.23,13.9c4.56,1.33,9.15,2.46,13.75,3.38
					c0.23-2.54,0.51-5.1,0.85-7.66c0.22-1.6,0.46-3.19,0.72-4.77c-1.51-0.54-3.02-1.1-4.52-1.68
					C192.32,108.85,189.8,107.79,187.32,106.68z"/>
				<path class="st70" d="M197.83,125.63c-0.11,0-0.22-0.01-0.33-0.03c-4.62-0.92-9.29-2.07-13.89-3.41
					c-0.82-0.24-1.33-1.07-1.17-1.91c0.9-4.76,2-9.49,3.27-14.04c0.13-0.47,0.46-0.86,0.9-1.06c0.44-0.21,0.95-0.21,1.39-0.01
					c2.59,1.16,5.04,2.18,7.49,3.13c1.33,0.52,2.75,1.05,4.48,1.67c0.76,0.27,1.21,1.05,1.09,1.84c-0.29,1.8-0.52,3.3-0.71,4.73
					c-0.33,2.43-0.61,4.98-0.84,7.59c-0.04,0.47-0.28,0.9-0.66,1.19C198.54,125.52,198.19,125.63,197.83,125.63z M186.01,119.4
					c3.43,0.97,6.89,1.82,10.33,2.55c0.2-2.01,0.43-3.98,0.68-5.87c0.14-1.08,0.31-2.2,0.5-3.45c-1.19-0.44-2.25-0.83-3.26-1.23
					c-1.93-0.75-3.86-1.55-5.86-2.41C187.51,112.39,186.71,115.88,186.01,119.4z"/>
			</g>
			<g>
				<path class="st70" d="M211.11,149.72c-3.87,0.59-7.77,1.36-11.68,2.28c0.97,4.06,2.1,8.05,3.39,11.96
					c23.4-8.11,47.54-10.86,70.23-8.08c-1.65-0.66-3.31-1.29-5-1.87C250.61,148.04,231.46,146.6,211.11,149.72z"/>
				<path class="st70" d="M202.83,165.62c-0.25,0-0.51-0.06-0.74-0.17c-0.4-0.2-0.71-0.55-0.85-0.97c-1.3-3.93-2.46-8-3.43-12.1
					c-0.1-0.43-0.03-0.89,0.2-1.26c0.23-0.38,0.61-0.65,1.04-0.75c3.98-0.94,7.96-1.71,11.81-2.3l0.25,1.65l-0.25-1.65
					c20.61-3.16,40.04-1.69,57.73,4.35c1.55,0.53,3.16,1.13,5.08,1.9c0.78,0.31,1.21,1.15,1,1.97s-0.99,1.34-1.82,1.24
					c-22.43-2.75-46.45,0.02-69.48,8C203.2,165.59,203.01,165.62,202.83,165.62z M201.46,153.24c0.73,2.9,1.54,5.77,2.44,8.58
					c18.37-6.17,37.34-9.09,55.64-8.62c-14.99-3.82-31.16-4.44-48.17-1.84l0,0C208.13,151.86,204.8,152.49,201.46,153.24z"/>
			</g>
			<g>
				<path class="st70" d="M187.69,173.67c3.26,9,7.29,17.61,12.08,25.69c7.08,11.94,15.49,22.2,24.95,30.6
					c-11.95-16.79-20.98-37.17-25.72-59.83C195.22,171.16,191.44,172.34,187.69,173.67z"/>
				<path class="st70" d="M224.72,231.64c-0.4,0-0.79-0.14-1.11-0.42c-9.66-8.57-18.17-19-25.28-31
					c-4.79-8.07-8.9-16.81-12.22-25.98c-0.15-0.42-0.13-0.88,0.06-1.28c0.19-0.4,0.53-0.71,0.95-0.86
					c3.79-1.35,7.64-2.55,11.45-3.57c0.44-0.12,0.92-0.05,1.31,0.19c0.39,0.24,0.67,0.63,0.76,1.08
					c4.54,21.72,13.34,42.19,25.44,59.2c0.49,0.69,0.39,1.64-0.24,2.21C225.52,231.49,225.12,231.64,224.72,231.64z M189.84,174.69
					c3.14,8.39,6.96,16.39,11.36,23.82c4.13,6.96,8.74,13.39,13.78,19.2c-7.81-13.87-13.68-29.33-17.24-45.5
					C195.11,172.96,192.47,173.79,189.84,174.69z"/>
			</g>
			<g>
				<path class="st70" d="M186.58,170.52c0.36,1.06,0.73,2.11,1.1,3.15c3.76-1.34,7.54-2.52,11.32-3.54
					c-0.31-1.48-0.6-2.97-0.87-4.47c-1.5,0.57-3,1.15-4.49,1.77C191.25,168.41,188.9,169.45,186.58,170.52z"/>
				<path class="st70" d="M187.69,175.34c-0.68,0-1.32-0.42-1.57-1.1c-0.39-1.07-0.76-2.14-1.11-3.18
					c-0.27-0.81,0.11-1.69,0.88-2.05c2.42-1.12,4.82-2.17,7.13-3.12c1.36-0.56,2.8-1.13,4.53-1.78c0.46-0.18,0.98-0.14,1.41,0.11
					c0.43,0.24,0.73,0.67,0.82,1.16c0.28,1.52,0.57,3.01,0.86,4.43c0.18,0.87-0.35,1.72-1.2,1.95c-3.72,1-7.49,2.18-11.2,3.5
					C188.06,175.31,187.87,175.34,187.69,175.34z M188.65,171.41c0.02,0.05,0.03,0.09,0.05,0.14c2.78-0.95,5.58-1.83,8.36-2.61
					c-0.07-0.33-0.13-0.66-0.2-1c-0.92,0.36-1.77,0.7-2.58,1.03C192.45,169.72,190.56,170.54,188.65,171.41z"/>
			</g>
			<g>
				<path class="st70" d="M197.33,160.91c0.24,1.6,0.52,3.18,0.8,4.76c1.56-0.59,3.12-1.16,4.69-1.71
					c-1.29-3.91-2.42-7.9-3.39-11.96c-1.05,0.25-2.09,0.51-3.14,0.78C196.57,155.47,196.92,158.19,197.33,160.91z"/>
				<path class="st70" d="M198.14,167.33c-0.28,0-0.57-0.07-0.82-0.22c-0.43-0.24-0.73-0.67-0.82-1.16
					c-0.33-1.83-0.59-3.35-0.81-4.8c-0.41-2.65-0.75-5.34-1.05-8.21c-0.09-0.82,0.44-1.58,1.24-1.79c1.12-0.29,2.16-0.54,3.18-0.79
					c0.9-0.21,1.79,0.34,2.01,1.24c0.96,4,2.08,7.98,3.36,11.82c0.29,0.87-0.18,1.8-1.04,2.1c-1.45,0.5-2.97,1.06-4.65,1.69
					C198.54,167.3,198.34,167.33,198.14,167.33z M198.98,160.66c0.13,0.87,0.28,1.76,0.45,2.74c0.44-0.16,0.88-0.32,1.31-0.48
					c-0.93-2.92-1.78-5.91-2.53-8.91c-0.03,0.01-0.07,0.02-0.1,0.03C198.37,156.32,198.65,158.5,198.98,160.66z"/>
			</g>
			<g>
				<path class="st70" d="M196.29,152.77c-4.55,1.17-9.11,2.56-13.66,4.15c1.13,4.62,2.44,9.15,3.95,13.6
					c2.32-1.07,4.67-2.11,7.06-3.09c1.49-0.61,2.99-1.2,4.49-1.77c-0.29-1.58-0.56-3.16-0.8-4.76
					C196.92,158.19,196.57,155.47,196.29,152.77z"/>
				<path class="st70" d="M186.58,172.19c-0.22,0-0.45-0.04-0.66-0.14c-0.44-0.19-0.77-0.55-0.92-1c-1.51-4.46-2.85-9.08-3.99-13.74
					c-0.2-0.83,0.26-1.69,1.07-1.97c4.57-1.6,9.21-3.01,13.79-4.19c0.47-0.12,0.97-0.03,1.37,0.25c0.4,0.28,0.66,0.71,0.71,1.2
					c0.3,2.82,0.63,5.46,1.03,8.06c0.22,1.42,0.47,2.91,0.8,4.71c0.14,0.79-0.3,1.57-1.05,1.86c-1.7,0.64-3.11,1.2-4.45,1.75
					c-2.26,0.93-4.62,1.96-6.99,3.06C187.06,172.14,186.82,172.19,186.58,172.19z M184.62,158c0.88,3.45,1.87,6.88,2.96,10.23
					c1.84-0.83,3.66-1.62,5.43-2.34c1.01-0.41,2.06-0.83,3.24-1.29c-0.22-1.25-0.4-2.36-0.57-3.44c-0.31-2.05-0.59-4.12-0.84-6.28
					C191.44,155.8,188.02,156.85,184.62,158z"/>
			</g>
			<g>
				<path class="st70" d="M170.92,194.9c-2.45-3.06-5.06-6.05-7.81-8.97c-3.03,2.87-5.92,5.84-8.66,8.92
					c18.73,16.21,33.18,35.74,42.11,56.78c-0.25-1.76-0.54-3.51-0.88-5.26C192.12,228.27,183.79,210.96,170.92,194.9z"/>
				<path class="st70" d="M196.56,253.29c-0.66,0-1.27-0.39-1.54-1.02c-8.84-20.8-23.24-40.22-41.67-56.17
					c-0.34-0.29-0.54-0.71-0.57-1.15c-0.03-0.45,0.12-0.89,0.42-1.22c2.76-3.09,5.7-6.13,8.76-9.02c0.32-0.3,0.75-0.47,1.2-0.46
					c0.44,0.01,0.86,0.2,1.17,0.52c2.81,2.98,5.46,6.03,7.9,9.07c13.04,16.27,21.48,33.83,25.1,52.18c0.32,1.61,0.6,3.31,0.89,5.35
					c0.12,0.83-0.4,1.62-1.2,1.85C196.86,253.27,196.71,253.29,196.56,253.29z M156.82,194.7c14.53,12.83,26.54,27.79,35.29,43.88
					c-4.19-14.9-11.73-29.21-22.49-42.64l0,0c-2.05-2.56-4.26-5.12-6.58-7.64C160.89,190.38,158.81,192.52,156.82,194.7z"/>
			</g>
			<g>
				<path class="st70" d="M138.46,186.59c-6.17,7.32-11.61,15.12-16.21,23.31c-6.8,12.1-11.48,24.52-14.02,36.91
					c8.57-18.74,21.7-36.75,38.96-52.18C144.41,191.86,141.49,189.18,138.46,186.59z"/>
				<path class="st70" d="M108.23,248.48c-0.17,0-0.35-0.03-0.52-0.08c-0.81-0.26-1.29-1.09-1.12-1.92
					c2.6-12.65,7.37-25.23,14.2-37.39c4.6-8.19,10.11-16.12,16.39-23.57c0.29-0.34,0.7-0.55,1.14-0.59c0.44-0.04,0.88,0.1,1.22,0.39
					c3.06,2.61,6.03,5.35,8.82,8.13c0.33,0.32,0.5,0.77,0.49,1.23c-0.01,0.46-0.21,0.89-0.56,1.2
					c-16.54,14.79-29.87,32.65-38.55,51.63C109.47,248.11,108.86,248.48,108.23,248.48z M138.66,188.96
					c-5.7,6.91-10.72,14.22-14.95,21.75c-3.97,7.06-7.22,14.26-9.74,21.53c8.11-13.7,18.56-26.51,30.78-37.68
					C142.79,192.67,140.75,190.79,138.66,188.96z"/>
			</g>
			<g>
				<path class="st70" d="M140.64,184.06c-0.74,0.84-1.46,1.68-2.18,2.53c3.04,2.59,5.95,5.27,8.72,8.04
					c1.13-1.01,2.27-2.01,3.44-2.99c-1.24-1.01-2.5-2.02-3.77-3.01C144.8,187.05,142.73,185.53,140.64,184.06z"/>
				<path class="st70" d="M147.18,196.3c-0.43,0-0.85-0.16-1.18-0.49c-2.73-2.72-5.63-5.39-8.63-7.95c-0.7-0.6-0.79-1.64-0.19-2.35
					c0.73-0.87,1.47-1.73,2.2-2.56c0.56-0.64,1.52-0.75,2.21-0.26c2.18,1.54,4.29,3.09,6.27,4.61c1.17,0.9,2.38,1.87,3.81,3.04
					c0.38,0.31,0.61,0.78,0.61,1.28c0,0.5-0.21,0.97-0.59,1.29c-1.18,1-2.32,1.99-3.4,2.96C147.98,196.16,147.58,196.3,147.18,196.3
					z M140.81,186.41c2.21,1.93,4.37,3.92,6.44,5.93c0.25-0.22,0.51-0.45,0.77-0.67c-0.77-0.62-1.49-1.18-2.19-1.72
					c-1.56-1.21-3.22-2.43-4.92-3.65C140.87,186.33,140.84,186.37,140.81,186.41z"/>
			</g>
			<g>
				<path class="st70" d="M154.34,188.56c-1.26,1.01-2.49,2.04-3.72,3.07c1.29,1.06,2.57,2.12,3.83,3.21
					c2.74-3.07,5.63-6.05,8.66-8.92c-0.74-0.78-1.49-1.56-2.24-2.33C158.66,185.19,156.49,186.84,154.34,188.56z"/>
				<path class="st70" d="M154.44,196.51c-0.39,0-0.78-0.13-1.09-0.41c-1.16-1-2.39-2.04-3.79-3.18c-0.38-0.31-0.61-0.78-0.61-1.28
					c0-0.5,0.21-0.97,0.59-1.29c1.42-1.2,2.61-2.19,3.75-3.1l0,0c2.07-1.66,4.28-3.34,6.59-5.02c0.67-0.49,1.59-0.41,2.17,0.18
					c0.81,0.83,1.55,1.6,2.27,2.36c0.63,0.67,0.6,1.72-0.07,2.36c-2.99,2.83-5.87,5.8-8.56,8.82
					C155.36,196.33,154.9,196.51,154.44,196.51z M153.23,191.62c0.36,0.3,0.72,0.6,1.07,0.89c2.06-2.26,4.23-4.49,6.45-6.65
					c-0.02-0.02-0.05-0.05-0.07-0.07c-1.84,1.36-3.62,2.73-5.3,4.07h0C154.7,190.41,153.99,190.99,153.23,191.62z M154.34,188.56
					L154.34,188.56L154.34,188.56z"/>
			</g>
			<g>
				<path class="st70" d="M160.86,183.59c-3.29-3.35-6.77-6.61-10.42-9.75c-3.43,3.28-6.7,6.69-9.8,10.22
					c2.09,1.47,4.16,2.99,6.21,4.57c1.28,0.99,2.53,1.99,3.77,3.01c1.22-1.04,2.46-2.06,3.72-3.07
					C156.49,186.84,158.66,185.19,160.86,183.59z"/>
				<path class="st70" d="M150.62,193.31c-0.37,0-0.75-0.13-1.06-0.38c-1.41-1.15-2.59-2.1-3.74-2.98
					c-1.94-1.49-4.01-3.02-6.15-4.53c-0.39-0.27-0.64-0.7-0.7-1.17c-0.06-0.47,0.09-0.94,0.4-1.3c3.11-3.54,6.44-7.01,9.9-10.32
					c0.62-0.59,1.59-0.62,2.24-0.06c3.68,3.16,7.22,6.48,10.53,9.85c0.34,0.35,0.51,0.82,0.47,1.31c-0.04,0.48-0.29,0.93-0.68,1.21
					c-2.26,1.64-4.44,3.3-6.46,4.92c-1.12,0.89-2.29,1.86-3.68,3.04C151.39,193.17,151,193.31,150.62,193.31z M143.12,183.78
					c1.64,1.18,3.23,2.36,4.74,3.53c0.86,0.67,1.75,1.37,2.73,2.16c0.97-0.82,1.85-1.53,2.69-2.21c1.59-1.28,3.27-2.57,5.02-3.87
					c-2.49-2.48-5.11-4.92-7.81-7.29C147.95,178.59,145.48,181.16,143.12,183.78z"/>
			</g>
			<g>
				<path class="st70" d="M111.69,182.68c1.42-3.65,2.71-7.41,3.87-11.25c-4-1.19-8.02-2.21-12.05-3.04
					c-4.67,24.33-14.36,46.6-28.11,64.86c1.39-1.1,2.77-2.22,4.12-3.39C93.39,217.73,104.22,201.86,111.69,182.68z"/>
				<path class="st70" d="M75.39,234.92c-0.42,0-0.85-0.16-1.17-0.48c-0.6-0.59-0.67-1.53-0.17-2.2
					c13.59-18.05,23.21-40.24,27.81-64.17c0.08-0.44,0.34-0.83,0.71-1.07c0.37-0.25,0.83-0.34,1.27-0.25
					c4.06,0.84,8.16,1.87,12.19,3.07c0.43,0.13,0.78,0.42,0.99,0.81c0.21,0.39,0.26,0.85,0.13,1.27c-1.18,3.92-2.49,7.75-3.91,11.38
					l-1.56-0.61l1.56,0.61c-7.57,19.43-18.55,35.52-32.64,47.82c-1.23,1.07-2.56,2.17-4.18,3.45
					C76.12,234.8,75.76,234.92,75.39,234.92z M104.81,170.38c-3.84,18.99-10.8,36.88-20.36,52.5c10.81-11.07,19.43-24.76,25.68-40.8
					l0,0c1.19-3.05,2.31-6.25,3.33-9.52C110.59,171.74,107.7,171.01,104.81,170.38z"/>
			</g>
			<g>
				<path class="st70" d="M102.66,150.42c-9.43-1.68-18.9-2.49-28.29-2.38c-13.88,0.17-26.98,2.32-38.98,6.31
					c20.52-1.95,42.68,0.42,64.67,7.64C101.07,158.2,101.94,154.34,102.66,150.42z"/>
				<path class="st70" d="M100.06,163.66c-0.18,0-0.35-0.03-0.52-0.08c-21.08-6.93-43.21-9.54-63.99-7.57
					c-0.85,0.08-1.62-0.49-1.79-1.32c-0.18-0.83,0.3-1.66,1.11-1.93c12.25-4.08,25.54-6.23,39.49-6.4c9.39-0.11,19.01,0.7,28.6,2.41
					c0.44,0.08,0.83,0.33,1.08,0.69s0.35,0.82,0.27,1.25c-0.73,3.96-1.61,7.9-2.63,11.7c-0.12,0.44-0.41,0.82-0.82,1.04
					C100.61,163.59,100.34,163.66,100.06,163.66z M50.87,152.04c15.91,0.17,32.24,2.82,48.02,7.82c0.67-2.65,1.28-5.36,1.81-8.08
					c-8.83-1.48-17.67-2.17-26.31-2.07C66.29,149.8,58.43,150.58,50.87,152.04z"/>
			</g>
			<g>
				<path class="st70" d="M105.94,151.04c-1.09-0.22-2.19-0.42-3.28-0.62c-0.72,3.92-1.59,7.78-2.6,11.57
					c1.44,0.47,2.87,0.97,4.31,1.48c0.26-1.58,0.5-3.17,0.72-4.77C105.43,156.14,105.71,153.58,105.94,151.04z"/>
				<path class="st70" d="M104.37,165.14c-0.19,0-0.38-0.03-0.56-0.1c-1.46-0.52-2.9-1.02-4.27-1.47c-0.84-0.28-1.32-1.16-1.09-2.02
					c0.99-3.72,1.86-7.57,2.57-11.44c0.17-0.9,1.03-1.5,1.94-1.34c1.11,0.2,2.23,0.41,3.31,0.63c0.84,0.17,1.41,0.94,1.34,1.79
					c-0.24,2.66-0.53,5.26-0.86,7.74c-0.2,1.45-0.43,2.99-0.72,4.82c-0.08,0.49-0.37,0.92-0.8,1.17
					C104.96,165.06,104.66,165.14,104.37,165.14z M102.07,160.9c0.32,0.11,0.64,0.22,0.96,0.33c0.15-0.98,0.28-1.88,0.4-2.75
					c0.26-1.96,0.5-4,0.7-6.09c-0.05-0.01-0.1-0.02-0.14-0.03C103.43,155.24,102.78,158.1,102.07,160.9z"/>
			</g>
			<g>
				<path class="st70" d="M108.89,165.15c-1.5-0.59-3.01-1.14-4.52-1.68c-0.27,1.65-0.55,3.29-0.87,4.92
					c4.03,0.84,8.05,1.85,12.05,3.04c0.31-1.03,0.61-2.07,0.9-3.11C113.98,167.21,111.46,166.15,108.89,165.15z"/>
				<path class="st70" d="M115.56,173.1c-0.16,0-0.32-0.02-0.48-0.07c-3.94-1.17-7.95-2.18-11.92-3.01
					c-0.89-0.19-1.47-1.05-1.3-1.95c0.29-1.5,0.57-3.09,0.86-4.87c0.08-0.49,0.37-0.92,0.8-1.17c0.43-0.25,0.94-0.3,1.41-0.13
					c1.75,0.63,3.2,1.17,4.56,1.7c0,0,0,0,0,0c2.5,0.97,5,2.02,7.64,3.2c0.76,0.34,1.15,1.18,0.93,1.97
					c-0.3,1.09-0.61,2.15-0.91,3.14C116.94,172.63,116.28,173.1,115.56,173.1z M105.44,167.1c2.99,0.66,6,1.41,8.98,2.27
					c0.01-0.03,0.02-0.07,0.03-0.1c-2.11-0.92-4.14-1.76-6.17-2.55l0,0c-0.82-0.32-1.67-0.64-2.6-0.98
					C105.6,166.19,105.52,166.65,105.44,167.1z"/>
			</g>
			<g>
				<path class="st70" d="M116.46,168.32c1.26-4.52,2.34-9.16,3.23-13.9c-4.56-1.33-9.15-2.46-13.75-3.38
					c-0.23,2.54-0.51,5.1-0.85,7.66c-0.22,1.6-0.46,3.19-0.72,4.77c1.51,0.54,3.02,1.1,4.52,1.68
					C111.46,166.15,113.98,167.21,116.46,168.32z"/>
				<path class="st70" d="M116.46,169.99c-0.23,0-0.46-0.05-0.68-0.14c-2.59-1.16-5.04-2.18-7.49-3.14
					c-1.34-0.52-2.76-1.05-4.48-1.67c-0.76-0.27-1.21-1.05-1.09-1.84c0.29-1.8,0.52-3.3,0.71-4.73c0.33-2.42,0.61-4.98,0.84-7.59
					c0.04-0.47,0.28-0.9,0.66-1.19c0.38-0.28,0.86-0.39,1.33-0.3c4.62,0.92,9.29,2.07,13.89,3.41c0.82,0.24,1.33,1.07,1.17,1.91
					c-0.9,4.76-2,9.49-3.27,14.04c-0.13,0.47-0.46,0.86-0.9,1.06C116.94,169.94,116.7,169.99,116.46,169.99z M106.24,162.37
					c1.19,0.43,2.25,0.83,3.26,1.23c1.93,0.75,3.86,1.55,5.86,2.41c0.9-3.4,1.71-6.89,2.41-10.41c-3.43-0.97-6.89-1.82-10.33-2.55
					c-0.2,2.01-0.43,3.98-0.68,5.87C106.6,160,106.43,161.12,106.24,162.37z"/>
			</g>
			<g>
				<path class="st70" d="M92.66,125.28c3.87-0.59,7.77-1.36,11.68-2.28c-0.97-4.06-2.1-8.05-3.39-11.96
					c-23.4,8.11-47.54,10.86-70.23,8.08c1.65,0.66,3.31,1.29,5,1.87C53.16,126.96,72.32,128.4,92.66,125.28z"/>
				<path class="st70" d="M72.2,128.55c-12.99,0-25.38-1.99-37.03-5.97c-1.55-0.53-3.16-1.13-5.08-1.9c-0.78-0.31-1.21-1.15-1-1.97
					c0.21-0.81,0.99-1.34,1.82-1.24c22.43,2.75,46.45-0.02,69.48-8.01c0.42-0.15,0.89-0.12,1.29,0.08c0.4,0.2,0.71,0.55,0.85,0.97
					c1.3,3.93,2.46,8,3.43,12.1c0.1,0.43,0.03,0.89-0.2,1.26c-0.23,0.38-0.61,0.65-1.04,0.75c-3.98,0.94-7.96,1.72-11.81,2.3
					l-0.25-1.65l0.25,1.65C85.86,128.01,78.95,128.55,72.2,128.55z M44.23,121.79c14.99,3.82,31.16,4.44,48.17,1.84l0,0
					c3.24-0.5,6.56-1.13,9.91-1.88c-0.73-2.89-1.54-5.77-2.44-8.58C81.51,119.34,62.54,122.26,44.23,121.79z"/>
			</g>
			<g>
				<path class="st70" d="M116.09,101.33c-3.26-9-7.29-17.61-12.08-25.69c-7.08-11.94-15.49-22.2-24.95-30.6
					C91,61.82,100.03,82.2,104.76,104.86C108.55,103.84,112.33,102.66,116.09,101.33z"/>
				<path class="st70" d="M104.76,106.53c-0.31,0-0.61-0.08-0.87-0.25c-0.39-0.24-0.67-0.63-0.76-1.08
					C98.59,83.48,89.79,63.01,77.69,46c-0.49-0.69-0.39-1.64,0.24-2.21c0.63-0.57,1.59-0.57,2.22-0.01c9.66,8.57,18.16,19,25.28,31
					c4.79,8.07,8.9,16.81,12.22,25.98c0.15,0.42,0.13,0.88-0.06,1.28c-0.19,0.4-0.53,0.71-0.95,0.86
					c-3.79,1.35-7.64,2.55-11.45,3.57C105.06,106.51,104.91,106.53,104.76,106.53z M88.79,57.29c7.81,13.87,13.68,29.33,17.24,45.5
					c2.63-0.74,5.28-1.57,7.91-2.47c-3.14-8.39-6.96-16.39-11.36-23.82C98.43,69.52,93.83,63.1,88.79,57.29z"/>
			</g>
			<g>
				<path class="st70" d="M117.19,104.48c-0.36-1.06-0.73-2.11-1.1-3.15c-3.76,1.34-7.54,2.52-11.32,3.54
					c0.31,1.48,0.6,2.97,0.87,4.47c1.5-0.57,3-1.15,4.49-1.77C112.52,106.59,114.87,105.55,117.19,104.48z"/>
				<path class="st70" d="M105.64,111.01c-0.28,0-0.57-0.07-0.82-0.22c-0.43-0.24-0.73-0.67-0.82-1.16
					c-0.28-1.52-0.57-3.01-0.86-4.43c-0.18-0.87,0.35-1.72,1.2-1.95c3.72-1,7.48-2.18,11.2-3.5c0.87-0.31,1.82,0.14,2.13,1.01
					c0.39,1.07,0.76,2.14,1.11,3.18c0.27,0.81-0.11,1.69-0.88,2.05c-2.42,1.12-4.82,2.17-7.13,3.12c-1.36,0.56-2.8,1.12-4.53,1.78
					C106.04,110.97,105.84,111.01,105.64,111.01z M106.71,106.06c0.07,0.33,0.13,0.66,0.2,1c0.93-0.36,1.77-0.7,2.58-1.03
					c1.83-0.75,3.72-1.57,5.63-2.44c-0.02-0.05-0.03-0.09-0.05-0.14C112.29,104.4,109.49,105.28,106.71,106.06z"/>
			</g>
			<g>
				<path class="st70" d="M106.44,114.09c-0.24-1.6-0.52-3.18-0.8-4.76c-1.56,0.59-3.12,1.16-4.69,1.71
					c1.29,3.91,2.42,7.9,3.39,11.96c1.05-0.25,2.09-0.51,3.14-0.78C107.2,119.52,106.86,116.81,106.44,114.09z"/>
				<path class="st70" d="M104.34,124.67c-0.76,0-1.44-0.52-1.62-1.28c-0.96-4-2.08-7.98-3.36-11.82c-0.29-0.87,0.18-1.8,1.04-2.1
					c1.44-0.5,2.96-1.05,4.65-1.69c0.46-0.18,0.98-0.14,1.41,0.11c0.43,0.24,0.73,0.67,0.82,1.16c0.33,1.83,0.59,3.35,0.81,4.8l0,0
					c0.41,2.65,0.75,5.34,1.05,8.21c0.09,0.82-0.44,1.58-1.24,1.79c-1.12,0.29-2.16,0.54-3.18,0.79
					C104.59,124.66,104.46,124.67,104.34,124.67z M103.03,112.08c0.93,2.92,1.78,5.91,2.53,8.91c0.03-0.01,0.07-0.02,0.1-0.02
					c-0.26-2.29-0.55-4.47-0.88-6.62c-0.13-0.87-0.28-1.76-0.45-2.74C103.9,111.77,103.46,111.92,103.03,112.08z"/>
			</g>
			<g>
				<path class="st70" d="M107.48,122.23c4.55-1.17,9.11-2.56,13.66-4.15c-1.13-4.62-2.44-9.15-3.95-13.6
					c-2.32,1.07-4.67,2.11-7.06,3.09c-1.49,0.61-2.99,1.2-4.49,1.77c0.29,1.58,0.56,3.16,0.8,4.76
					C106.86,116.81,107.2,119.52,107.48,122.23z"/>
				<path class="st70" d="M107.48,123.9c-0.34,0-0.67-0.1-0.95-0.3c-0.4-0.28-0.66-0.71-0.71-1.2c-0.3-2.82-0.63-5.46-1.03-8.06
					c-0.22-1.42-0.47-2.91-0.8-4.71c-0.14-0.79,0.3-1.57,1.05-1.86c1.71-0.65,3.12-1.2,4.45-1.75c2.26-0.93,4.62-1.96,6.99-3.06
					c0.43-0.2,0.93-0.21,1.36-0.02c0.44,0.19,0.77,0.55,0.92,1c1.51,4.46,2.85,9.08,3.99,13.74c0.2,0.83-0.26,1.69-1.07,1.97
					c-4.57,1.6-9.21,3.01-13.79,4.19C107.76,123.88,107.62,123.9,107.48,123.9z M107.52,110.4c0.22,1.25,0.4,2.36,0.57,3.44
					c0.31,2.05,0.59,4.12,0.84,6.28c3.4-0.92,6.82-1.96,10.22-3.12c-0.88-3.45-1.87-6.88-2.96-10.23c-1.84,0.83-3.66,1.62-5.43,2.34
					C109.76,109.53,108.71,109.95,107.52,110.4z"/>
			</g>
		</g>
		<rect x="312.86" y="67.79" class="st71" width="1250" height="190.88"/>
		<text transform="matrix(1 0 0 1 312.8599 218.9882)" class="st70 st72 st73 st74">QUERENT</text>
	</g>
</g>
</svg>
